# Vectary OBJ Export units=mm
mtllib Project Name.mtl
o 000_Fire_01
g Fire_01
usemtl Material 7_16aeb02f-9045-47b0-a2b7-9f91daa2406d
v 1.502 4.830 30.003
v -0.719 5.586 24.991
v -2.479 3.165 30.141
v 1.507 3.091 35.261
v -4.754 4.213 33.115
v -3.202 3.299 42.227
v -2.095 5.073 38.900
v -3.061 3.299 41.625
v -1.955 5.073 38.298
v 0.268 -3.097 40.626
v -0.200 -1.549 36.874
v -1.529 -0.498 46.014
v 0.100 -3.109 39.978
v -0.368 -1.562 36.226
v -2.705 8.823 18.523
v -4.777 3.214 24.360
v 7.927 3.244 18.523
v 6.455 -2.759 18.523
v -1.769 -3.648 37.866
v -0.254 -4.504 30.576
v -1.428 -8.688 18.523
v -3.405 -4.817 27.881
v -9.904 -1.987 18.523
v 3.071 2.219 48.794
v 2.089 3.315 44.105
v 0.299 4.100 55.120
v 2.932 2.117 47.999
v 1.949 3.212 43.310
v -1.899 -0.304 25.684
v 0.943 -0.380 26.921
v -1.087 -0.611 29.641
vt 0.68454 0.63125
vt 0.78585 0.55679
vt 0.68454 0.64770
vt 0.78585 0.54034
vt 0.31929 0.60396
vt 0.40769 0.50143
vt 0.46771 0.75118
vt 0.31860 0.58625
vt 0.40694 0.48373
vt 0.68545 0.69902
vt 0.62287 0.82714
vt 0.61704 0.80542
vt 0.67957 0.67730
vt 0.77197 0.31369
vt 0.47878 0.19567
vt 0.81514 0.17674
vt 0.23894 0.32934
vt 0.00000 0.00000
vt 0.47878 0.19567
vt 0.38267 0.00000
vt 0.47878 0.19567
vt 0.22106 0.25570
vt 0.46125 0.30380
vt 0.47444 0.22947
vt 0.68140 0.00000
vt 0.33859 0.00000
vt 0.48489 0.17674
vt 0.58359 0.31746
vt 0.36005 0.45736
vt 0.36033 0.31369
vt 0.59626 0.00000
vt -0.00000 0.00000
vt 0.55106 0.19567
vt 0.71118 0.39872
vt 0.62414 0.64770
vt 0.56205 0.55679
vt 0.55420 0.54034
vt 0.53031 0.75118
vt 0.45578 0.50143
vt 0.46520 0.48373
vt 0.27233 0.82714
vt 0.32741 0.69902
vt 0.42779 1.00000
vt 0.33526 0.67730
vt 0.39168 0.22947
vt 0.08255 0.00000
vt 0.55106 0.19567
vt 0.50552 0.30380
vt 0.54377 0.52854
vt 0.08255 0.00000
vt 1.00000 0.00000
vt 0.53229 0.75118
vt 0.59306 0.48373
vt 0.68140 0.58625
vt 0.32311 0.31746
vt 0.00000 0.00000
vt 0.32031 0.15949
vt 0.61733 0.00000
vt 0.53875 0.30380
vt 0.32734 0.45736
vt 0.52122 0.19567
vt 1.00000 0.00000
vt 0.77894 0.25570
vt 0.28882 0.39872
vt 0.38377 0.63125
vt 0.37586 0.64770
vt 0.44580 0.54034
vt 0.56105 0.58625
vt 0.57047 0.60396
vt 0.46969 0.75118
vt 0.91745 0.00000
vt 0.45623 0.52854
vt 0.54119 0.32934
vt 0.47535 0.00000
vt 0.44894 0.19567
vt 0.36448 0.25570
vt 0.00000 0.00000
vt 0.71987 0.80542
vt 0.72767 0.82714
vt 0.57221 1.00000
vt 0.66474 0.67730
vt 0.51511 0.17674
vt 0.28753 0.15949
vt 0.40374 0.00000
vt 0.44894 0.19567
vt 1.00000 0.00000
vt 0.60832 0.22947
vt 0.63995 0.45736
vt 0.49448 0.30380
vt 1.00000 0.00000
vt 0.52122 0.55106
vt 0.61733 1.00000
vt 0.32031 0.71247
vt 0.18486 0.48489
vn -0.16300 0.91299 0.37400
vn -0.51791 0.76986 0.37293
vn -0.35992 0.88580 0.29293
vn -0.35992 0.88580 0.29293
vn -0.44211 0.89422 0.07002
vn -0.64108 0.74509 0.18402
vn -0.44211 0.89422 0.07002
vn -0.24098 -0.96891 -0.05600
vn -0.24098 -0.96891 -0.05600
vn -0.24098 -0.96891 -0.05600
vn 0.95818 -0.17803 0.22404
vn 0.95818 -0.17803 0.22404
vn 0.95818 -0.17803 0.22404
vn 0.61204 -0.76406 -0.20401
vn 0.61204 -0.76406 -0.20401
vn 0.61204 -0.76406 -0.20401
vn 0.95818 -0.17803 0.22404
vn 0.95818 -0.17803 0.22404
vn 0.95818 -0.17803 0.22404
vn -0.44211 0.89422 0.07002
vn -0.20989 0.97650 -0.04897
vn -0.44211 0.89422 0.07002
vn 0.88712 0.45506 0.07701
vn 0.88712 0.45506 0.07701
vn 0.88712 0.45506 0.07701
vn 0.92803 -0.28901 -0.23501
vn 0.92803 -0.28901 -0.23501
vn 0.92803 -0.28901 -0.23501
vn 0.22907 0.97028 -0.07802
vn 0.22907 0.97028 -0.07802
vn 0.22907 0.97028 -0.07802
vn -0.78184 -0.62087 0.05699
vn -0.60630 -0.77639 0.17209
vn -0.78184 -0.62087 0.05699
vn 0.92803 -0.28901 -0.23501
vn 0.92803 -0.28901 -0.23501
vn 0.92803 -0.28901 -0.23501
vn -0.78184 -0.62087 0.05699
vn -0.90444 -0.42221 -0.06103
vn -0.78184 -0.62087 0.05699
vn -0.67294 0.66594 0.32197
vn -0.74800 0.59100 0.30200
vn -0.79260 0.51974 0.31884
vn -0.16300 0.91299 0.37400
vn -0.16300 0.91299 0.37400
vn 0.04198 0.89858 0.43680
vn 0.62186 0.74383 0.24495
vn 0.62186 0.74383 0.24495
vn 0.62186 0.74383 0.24495
vn 0.58690 -0.78087 0.21397
vn 0.58690 -0.78087 0.21397
vn 0.58690 -0.78087 0.21397
vn 0.58690 -0.78087 0.21397
vn 0.58690 -0.78087 0.21397
vn 0.58690 -0.78087 0.21397
vn -0.60904 -0.77005 0.19001
vn -0.60904 -0.77005 0.19001
vn -0.60904 -0.77005 0.19001
vn -0.60904 -0.77005 0.19001
vn -0.69420 -0.58517 0.41912
vn -0.60904 -0.77005 0.19001
vn -0.67294 0.66594 0.32197
vn -0.79260 0.51974 0.31884
vn -0.67684 0.66584 0.31392
vn 0.63332 0.77240 0.04802
vn 0.63332 0.77240 0.04802
vn 0.63332 0.77240 0.04802
vn 0.97863 0.09197 -0.18393
vn 0.97863 0.09197 -0.18393
vn 0.97863 0.09197 -0.18393
vn -0.16606 0.98133 -0.09703
vn -0.16606 0.98133 -0.09703
vn -0.16606 0.98133 -0.09703
vn -0.47592 -0.87686 0.06799
vn -0.26115 -0.95055 0.16810
vn -0.47592 -0.87686 0.06799
vn 0.97863 0.09197 -0.18393
vn 0.97863 0.09197 -0.18393
vn 0.97863 0.09197 -0.18393
vn -0.47592 -0.87686 0.06799
vn -0.66182 -0.74880 -0.03599
vn -0.47592 -0.87686 0.06799
vn 0.76408 0.00900 -0.64506
vn 0.62218 0.22707 -0.74922
vn 0.45213 0.03501 -0.89126
vn 0.45213 0.03501 -0.89126
vn 0.24290 -0.16093 -0.95661
vn 0.54004 -0.15601 -0.82706
vn 0.72098 -0.49099 -0.48899
vn 0.49291 -0.70788 -0.50591
vn 0.49291 -0.70788 -0.50591
vn -0.56009 0.71811 -0.41306
vn -0.79896 0.47797 -0.36498
vn -0.56009 0.71811 -0.41306
vn 0.87761 -0.22590 -0.42281
vn 0.84703 -0.08300 -0.52502
vn 0.72098 -0.49099 -0.48899
vn 0.11198 -0.94282 -0.31394
vn 0.11198 -0.94282 -0.31394
vn 0.11198 -0.94282 -0.31394
vn 0.11399 0.97294 -0.20099
vn 0.11399 0.97294 -0.20099
vn 0.11399 0.97294 -0.20099
vn -0.56731 -0.70939 -0.41823
vn -0.56731 -0.70939 -0.41823
vn -0.56731 -0.70939 -0.41823
vn 0.96809 0.19202 -0.16102
vn 0.96809 0.19202 -0.16102
vn 0.87786 0.06899 -0.47392
vn 0.63392 -0.49894 -0.59093
vn 0.63022 -0.31811 -0.70825
vn 0.63392 -0.49894 -0.59093
vn -0.79896 0.47797 -0.36498
vn -0.94423 0.18104 -0.27507
vn -0.94423 0.18104 -0.27507
vn -0.72812 -0.34706 0.59110
vn -0.72812 -0.34706 0.59110
vn -0.74174 -0.34888 0.57280
vn 0.60380 -0.76475 0.22493
vn 0.60380 -0.76475 0.22493
vn 0.60380 -0.76475 0.22493
vn 0.79391 -0.19498 0.57593
vn 0.79391 -0.19498 0.57593
vn 0.79391 -0.19498 0.57593
vn 0.79391 -0.19498 0.57593
vn 0.79391 -0.19498 0.57593
vn 0.79391 -0.19498 0.57593
vn 0.65321 0.69122 0.30910
vn 0.65321 0.69122 0.30910
vn 0.65321 0.69122 0.30910
vn -0.67684 0.66584 0.31392
vn -0.47197 0.83894 0.27098
vn -0.47197 0.83894 0.27098
vn -0.72812 -0.34706 0.59110
vn -0.69420 -0.58517 0.41912
vn -0.72812 -0.34706 0.59110
f 3/28/2 4/29/3 1/30/4 2/27/1 
f 5/34/5 6/35/6 7/36/7 
f 5/64/8 8/65/9 6/66/10 
f 8/1/11 7/2/12 6/3/13 
f 9/67/14 8/65/15 5/64/16 
f 8/1/17 9/4/18 7/2/19 
f 7/36/20 9/37/21 5/34/22 
f 10/5/23 11/6/24 12/7/25 
f 11/6/26 10/5/27 13/8/28 
f 12/38/29 11/39/30 14/40/31 
f 13/68/32 10/69/33 12/70/34 
f 11/6/35 13/8/36 14/9/37 
f 12/52/38 14/53/39 13/54/40 
f 3/55/41 15/56/42 16/57/43 
f 3/28/44 2/27/45 15/31/46 
f 4/29/47 17/32/48 1/30/49 
f 18/71/50 19/72/51 20/73/52 
f 21/74/53 20/73/54 19/72/55 
f 19/72/56 22/76/57 21/74/58 
f 19/72/59 23/77/60 22/76/61 
f 3/55/62 16/57/63 23/58/64 
f 24/41/65 25/42/66 26/43/67 
f 25/10/68 24/11/69 27/12/70 
f 26/43/71 25/42/72 28/44/73 
f 27/78/74 24/79/75 26/80/76 
f 25/10/77 27/12/78 28/13/79 
f 26/80/80 28/81/81 27/78/82 
f 29/91/83 23/92/84 16/93/85 
f 16/93/86 2/94/87 29/91/88 
f 2/82/89 16/83/90 15/84/91 
f 17/32/92 29/33/93 1/30/94 
f 1/14/95 29/15/96 2/16/97 
f 29/85/98 17/86/99 30/87/100 
f 30/45/101 18/46/102 29/47/103 
f 29/75/104 18/71/105 20/73/106 
f 20/17/107 21/18/108 29/19/109 
f 23/20/110 29/21/111 22/22/112 
f 29/61/113 21/62/114 22/63/115 
f 3/55/116 31/59/117 4/60/118 
f 4/88/119 31/89/120 17/90/121 
f 31/23/122 30/24/123 17/25/124 
f 31/23/125 18/26/126 30/24/127 
f 31/48/128 19/49/129 18/50/130 
f 23/51/131 19/49/132 31/48/133 
f 3/55/134 23/58/135 31/59/136 
o 001_Fire_02
g Fire_02
usemtl Material 8_72b49a7c-0b28-412c-b224-9fff16a61f73
v -8.208 3.286 15.727
v -9.904 -1.987 18.523
v -4.777 3.214 24.360
v -2.705 8.823 18.523
v -6.957 -0.876 12.931
v -1.428 -8.688 18.523
v -1.292 -5.799 12.931
v 6.455 -2.759 18.523
v 7.927 3.244 18.523
v -0.763 5.407 12.931
v 1.492 8.625 18.523
v -0.719 5.586 24.991
v 1.502 4.830 30.003
v 0.943 -0.380 26.921
v -0.254 -4.504 30.576
v -3.405 -4.817 27.881
v -1.899 -0.304 25.684
vt 0.33859 0.31692
vt 0.68140 0.31692
vt 0.47444 0.79286
vt 0.22106 0.84727
vt 0.00000 0.31692
vt 0.47878 0.72275
vt 0.36089 0.31692
vt -0.00000 0.31692
vt 0.48735 0.00000
vt 0.36033 0.96753
vt 0.59626 0.31692
vt 0.48489 0.68348
vt 0.90488 0.15846
vt 0.71247 0.64772
vt 0.39168 0.79286
vt -0.00000 0.31692
vt 0.55106 0.72275
vt 0.45881 1.00000
vt 0.08255 0.31692
vt 0.55106 0.72275
vt 0.52122 0.44894
vt 0.18486 0.51511
vt 0.32031 0.28753
vt 0.61733 0.00000
vt 0.31620 0.15846
vt 0.61733 0.31692
vt 0.32031 0.64772
vt 0.55388 0.00000
vt 0.00000 0.31692
vt 0.18486 0.68348
vt 0.52122 0.72275
vt 0.22803 0.96753
vt 0.77894 0.84727
vt 0.52122 0.72275
vt 0.61733 0.31692
vt 0.52122 0.72275
vt 1.00000 0.31692
vt 0.76106 1.00000
vt 0.47535 0.31692
vt 0.00000 0.31692
vt 0.16527 0.00000
vt 0.36448 0.84727
vt 0.48298 0.00000
vt 0.91745 0.31692
vt 0.54119 1.00000
vt 0.63967 0.96753
vt 0.44894 0.72275
vt 1.00000 0.31692
vt 0.44894 0.72275
vt 0.91745 0.31692
vt 0.60832 0.79286
vt 0.66141 0.08255
vt 0.83502 0.51702
vt 0.31860 -0.00000
vt 0.19508 0.48735
vt 0.55388 0.83473
vt 0.31620 0.90488
vn -0.83131 0.44417 0.33412
vn -0.83131 0.44417 0.33412
vn -0.83131 0.44417 0.33412
vn -0.74800 0.59100 0.30200
vn -0.74800 0.59100 0.30200
vn -0.74800 0.59100 0.30200
vn -0.88735 0.04202 -0.45918
vn -0.88735 0.04202 -0.45918
vn -0.88735 0.04202 -0.45918
vn -0.55896 -0.70595 -0.43497
vn -0.55896 -0.70595 -0.43497
vn -0.55896 -0.70595 -0.43497
vn -0.60811 -0.69913 -0.37607
vn -0.60811 -0.69913 -0.37607
vn -0.60811 -0.69913 -0.37607
vn 0.61716 -0.15104 -0.77220
vn 0.61716 -0.15104 -0.77220
vn 0.61716 -0.15104 -0.77220
vn 0.53664 -0.02498 -0.84344
vn 0.53664 -0.02498 -0.84344
vn 0.53664 -0.02498 -0.84344
vn 0.52514 0.62816 -0.57415
vn 0.52514 0.62816 -0.57415
vn 0.52514 0.62816 -0.57415
vn 0.04099 0.85871 -0.51083
vn 0.04099 0.85871 -0.51083
vn 0.04099 0.85871 -0.51083
vn -0.35992 0.88580 0.29293
vn -0.35992 0.88580 0.29293
vn -0.35992 0.88580 0.29293
vn -0.41697 0.70395 -0.57496
vn -0.41697 0.70395 -0.57496
vn -0.41697 0.70395 -0.57496
vn -0.42119 0.41519 -0.80636
vn -0.42119 0.41519 -0.80636
vn -0.42119 0.41519 -0.80636
vn 0.00000 0.00000 -1.00000
vn 0.00000 0.00000 -1.00000
vn 0.00000 0.00000 -1.00000
vn 0.62186 0.74383 0.24495
vn 0.62186 0.74383 0.24495
vn 0.62186 0.74383 0.24495
vn 0.79391 -0.19498 0.57593
vn 0.79391 -0.19498 0.57593
vn 0.79391 -0.19498 0.57593
vn 0.58690 -0.78087 0.21397
vn 0.58690 -0.78087 0.21397
vn 0.58690 -0.78087 0.21397
vn -0.60904 -0.77005 0.19001
vn -0.60904 -0.77005 0.19001
vn -0.60904 -0.77005 0.19001
vn 0.04198 0.89858 0.43680
vn 0.04198 0.89858 0.43680
vn 0.04198 0.89858 0.43680
vn -0.49291 0.70788 0.50591
vn -0.49291 0.70788 0.50591
vn -0.49291 0.70788 0.50591
vn -0.24290 0.16093 0.95661
vn -0.24290 0.16093 0.95661
vn -0.24290 0.16093 0.95661
vn -0.87761 0.22590 0.42281
vn -0.87761 0.22590 0.42281
vn -0.87761 0.22590 0.42281
vn -0.62218 -0.22707 0.74922
vn -0.62218 -0.22707 0.74922
vn -0.62218 -0.22707 0.74922
vn -0.63392 0.49894 0.59093
vn -0.63392 0.49894 0.59093
vn -0.63392 0.49894 0.59093
vn -0.11198 0.94282 0.31394
vn -0.11198 0.94282 0.31394
vn -0.11198 0.94282 0.31394
vn 0.56009 -0.71811 0.41306
vn 0.56009 -0.71811 0.41306
vn 0.56009 -0.71811 0.41306
vn 0.55791 -0.74288 -0.36994
vn 0.55791 -0.74288 -0.36994
vn 0.55791 -0.74288 -0.36994
vn 0.94423 -0.18104 0.27507
vn 0.94423 -0.18104 0.27507
vn 0.94423 -0.18104 0.27507
vn -0.96809 -0.19202 0.16102
vn -0.96809 -0.19202 0.16102
vn -0.96809 -0.19202 0.16102
vn 0.56731 0.70939 0.41823
vn 0.56731 0.70939 0.41823
vn 0.56731 0.70939 0.41823
vn -0.11399 -0.97294 0.20099
vn -0.11399 -0.97294 0.20099
vn -0.11399 -0.97294 0.20099
f 32/119/137 33/120/138 34/121/139 
f 32/119/140 34/121/141 35/123/142 
f 33/120/143 32/119/144 36/122/145 
f 37/133/146 33/134/147 36/135/148 
f 37/133/149 36/135/150 38/137/151 
f 39/146/152 38/147/153 40/148/154 
f 41/149/155 40/148/156 38/147/157 
f 42/101/158 40/102/159 41/103/160 
f 35/105/161 42/101/162 41/103/163 
f 42/101/164 43/106/165 44/104/166 
f 32/107/167 35/105/168 41/103/169 
f 32/151/170 41/149/171 36/150/172 
f 38/147/173 36/150/174 41/149/175 
f 42/101/176 44/104/177 40/102/178 
f 39/95/179 40/96/180 45/97/181 
f 39/138/182 46/139/183 37/133/184 
f 37/133/185 47/136/186 33/134/187 
f 42/101/188 35/105/189 43/106/190 
f 35/105/191 34/108/192 43/106/193 
f 48/115/194 43/116/195 34/117/196 
f 43/124/197 48/125/198 44/126/199 
f 34/117/200 33/118/201 48/115/202 
f 47/127/203 48/128/204 33/129/205 
f 45/109/206 40/110/207 48/111/208 
f 44/140/209 48/141/210 40/142/211 
f 39/138/212 37/133/213 38/137/214 
f 47/98/215 37/99/216 48/100/217 
f 48/130/218 37/131/219 46/132/220 
f 46/112/221 39/113/222 48/114/223 
f 48/143/224 39/144/225 45/145/226 
